<mxfile host="app.diagrams.net" modified="2023-07-18T15:28:18.661Z" agent="Mozilla/5.0 (Windows NT 10.0; Win64; x64) AppleWebKit/537.36 (KHTML, like Gecko) Chrome/114.0.0.0 Safari/537.36" etag="GW7Vu5Tkur0_bF4IbTu9" version="21.6.2" type="device">
  <diagram id="YKiBKlaoCuLFtthqr4kv" name="Página-1">
    <mxGraphModel dx="2717" dy="970" grid="1" gridSize="10" guides="1" tooltips="1" connect="1" arrows="1" fold="1" page="1" pageScale="1" pageWidth="827" pageHeight="1169" math="0" shadow="0">
      <root>
        <mxCell id="0" />
        <mxCell id="1" parent="0" />
        <mxCell id="Zzf7KM-flJiP9QOSgCD5-19" value="LOGICA&lt;span style=&quot;color: rgba(0, 0, 0, 0); font-family: monospace; font-size: 0px; font-weight: 400; text-align: start;&quot;&gt;%3CmxGraphModel%3E%3Croot%3E%3CmxCell%20id%3D%220%22%2F%3E%3CmxCell%20id%3D%221%22%20parent%3D%220%22%2F%3E%3CmxCell%20id%3D%222%22%20value%3D%22UI%22%20style%3D%22shape%3Dfolder%3BfontStyle%3D1%3BtabWidth%3D110%3BtabHeight%3D30%3BtabPosition%3Dleft%3Bhtml%3D1%3BboundedLbl%3D1%3BlabelInHeader%3D1%3Bcontainer%3D1%3Bcollapsible%3D0%3BrecursiveResize%3D0%3B%22%20vertex%3D%221%22%20parent%3D%221%22%3E%3CmxGeometry%20x%3D%22100%22%20y%3D%2250%22%20width%3D%22710%22%20height%3D%22260%22%20as%3D%22geometry%22%2F%3E%3C%2FmxCell%3E%3C%2Froot%3E%3C%2FmxGraphModel%3E&lt;/span&gt;" style="shape=folder;fontStyle=1;tabWidth=110;tabHeight=30;tabPosition=left;html=1;boundedLbl=1;labelInHeader=1;container=1;collapsible=0;recursiveResize=0;strokeColor=#000000;" parent="1" vertex="1">
          <mxGeometry x="-480" y="740" width="1370" height="570" as="geometry" />
        </mxCell>
        <mxCell id="Zzf7KM-flJiP9QOSgCD5-37" value="PERSISTENCIA" style="shape=folder;fontStyle=1;tabWidth=150;tabHeight=30;tabPosition=left;html=1;boundedLbl=1;labelInHeader=1;container=1;collapsible=0;recursiveResize=0;" parent="1" vertex="1">
          <mxGeometry x="-484" y="1350" width="1384" height="660" as="geometry" />
        </mxCell>
        <mxCell id="4FLnIjoYqeW0npmRk8-U-1" value="Conexion" style="swimlane;fontStyle=3;align=center;verticalAlign=top;childLayout=stackLayout;horizontal=1;startSize=26;horizontalStack=0;resizeParent=1;resizeParentMax=0;resizeLast=0;collapsible=1;marginBottom=0;" parent="Zzf7KM-flJiP9QOSgCD5-37" vertex="1">
          <mxGeometry x="1120" y="520" width="130" height="92" as="geometry" />
        </mxCell>
        <mxCell id="4FLnIjoYqeW0npmRk8-U-2" value="- cnn: string" style="text;strokeColor=none;fillColor=none;align=left;verticalAlign=top;spacingLeft=4;spacingRight=4;overflow=hidden;rotatable=0;points=[[0,0.5],[1,0.5]];portConstraint=eastwest;fontStyle=4" parent="4FLnIjoYqeW0npmRk8-U-1" vertex="1">
          <mxGeometry y="26" width="130" height="32" as="geometry" />
        </mxCell>
        <mxCell id="4FLnIjoYqeW0npmRk8-U-3" value="" style="line;strokeWidth=1;fillColor=none;align=left;verticalAlign=middle;spacingTop=-1;spacingLeft=3;spacingRight=3;rotatable=0;labelPosition=right;points=[];portConstraint=eastwest;strokeColor=inherit;" parent="4FLnIjoYqeW0npmRk8-U-1" vertex="1">
          <mxGeometry y="58" width="130" height="8" as="geometry" />
        </mxCell>
        <mxCell id="4FLnIjoYqeW0npmRk8-U-4" value=" " style="text;strokeColor=none;fillColor=none;align=left;verticalAlign=top;spacingLeft=4;spacingRight=4;overflow=hidden;rotatable=0;points=[[0,0.5],[1,0.5]];portConstraint=eastwest;" parent="4FLnIjoYqeW0npmRk8-U-1" vertex="1">
          <mxGeometry y="66" width="130" height="26" as="geometry" />
        </mxCell>
        <mxCell id="tdh5stbtL8ZLt6p26N77-5" value="PersistenciaCompania" style="swimlane;fontStyle=1;align=center;verticalAlign=top;childLayout=stackLayout;horizontal=1;startSize=26;horizontalStack=0;resizeParent=1;resizeParentMax=0;resizeLast=0;collapsible=1;marginBottom=0;" parent="Zzf7KM-flJiP9QOSgCD5-37" vertex="1">
          <mxGeometry x="480" y="80" width="270" height="168" as="geometry" />
        </mxCell>
        <mxCell id="tdh5stbtL8ZLt6p26N77-6" value="- instancia: PersistenciaCompania " style="text;strokeColor=none;fillColor=none;align=left;verticalAlign=top;spacingLeft=4;spacingRight=4;overflow=hidden;rotatable=0;points=[[0,0.5],[1,0.5]];portConstraint=eastwest;" parent="tdh5stbtL8ZLt6p26N77-5" vertex="1">
          <mxGeometry y="26" width="270" height="26" as="geometry" />
        </mxCell>
        <mxCell id="tdh5stbtL8ZLt6p26N77-7" value="" style="line;strokeWidth=1;fillColor=none;align=left;verticalAlign=middle;spacingTop=-1;spacingLeft=3;spacingRight=3;rotatable=0;labelPosition=right;points=[];portConstraint=eastwest;strokeColor=inherit;" parent="tdh5stbtL8ZLt6p26N77-5" vertex="1">
          <mxGeometry y="52" width="270" height="8" as="geometry" />
        </mxCell>
        <mxCell id="tdh5stbtL8ZLt6p26N77-8" value="+GetInstancia(): PersistenciaCompania" style="text;strokeColor=none;fillColor=none;align=left;verticalAlign=top;spacingLeft=4;spacingRight=4;overflow=hidden;rotatable=0;points=[[0,0.5],[1,0.5]];portConstraint=eastwest;fontStyle=4" parent="tdh5stbtL8ZLt6p26N77-5" vertex="1">
          <mxGeometry y="60" width="270" height="30" as="geometry" />
        </mxCell>
        <mxCell id="tdh5stbtL8ZLt6p26N77-12" value="+Buscar(pNombre: string): Compania" style="text;strokeColor=none;fillColor=none;align=left;verticalAlign=top;spacingLeft=4;spacingRight=4;overflow=hidden;rotatable=0;points=[[0,0.5],[1,0.5]];portConstraint=eastwest;fontStyle=0" parent="tdh5stbtL8ZLt6p26N77-5" vertex="1">
          <mxGeometry y="90" width="270" height="26" as="geometry" />
        </mxCell>
        <mxCell id="KsVdHm2s3OmVLTwSaz9g-104" value="+AltaCompania(unaC: Compania)" style="text;strokeColor=none;fillColor=none;align=left;verticalAlign=top;spacingLeft=4;spacingRight=4;overflow=hidden;rotatable=0;points=[[0,0.5],[1,0.5]];portConstraint=eastwest;fontStyle=0" vertex="1" parent="tdh5stbtL8ZLt6p26N77-5">
          <mxGeometry y="116" width="270" height="26" as="geometry" />
        </mxCell>
        <mxCell id="KsVdHm2s3OmVLTwSaz9g-105" value="+ListarCompanias(): Lista de Companias" style="text;strokeColor=none;fillColor=none;align=left;verticalAlign=top;spacingLeft=4;spacingRight=4;overflow=hidden;rotatable=0;points=[[0,0.5],[1,0.5]];portConstraint=eastwest;fontStyle=0" vertex="1" parent="tdh5stbtL8ZLt6p26N77-5">
          <mxGeometry y="142" width="270" height="26" as="geometry" />
        </mxCell>
        <mxCell id="4FLnIjoYqeW0npmRk8-U-20" value="FabricaPersistencia" style="swimlane;fontStyle=1;align=center;verticalAlign=top;childLayout=stackLayout;horizontal=1;startSize=26;horizontalStack=0;resizeParent=1;resizeParentMax=0;resizeLast=0;collapsible=1;marginBottom=0;" parent="Zzf7KM-flJiP9QOSgCD5-37" vertex="1">
          <mxGeometry x="920" y="80" width="380" height="216" as="geometry" />
        </mxCell>
        <mxCell id="4FLnIjoYqeW0npmRk8-U-21" value=" " style="text;strokeColor=none;fillColor=none;align=left;verticalAlign=top;spacingLeft=4;spacingRight=4;overflow=hidden;rotatable=0;points=[[0,0.5],[1,0.5]];portConstraint=eastwest;" parent="4FLnIjoYqeW0npmRk8-U-20" vertex="1">
          <mxGeometry y="26" width="380" height="26" as="geometry" />
        </mxCell>
        <mxCell id="4FLnIjoYqeW0npmRk8-U-22" value="" style="line;strokeWidth=1;fillColor=none;align=left;verticalAlign=middle;spacingTop=-1;spacingLeft=3;spacingRight=3;rotatable=0;labelPosition=right;points=[];portConstraint=eastwest;strokeColor=inherit;" parent="4FLnIjoYqeW0npmRk8-U-20" vertex="1">
          <mxGeometry y="52" width="380" height="8" as="geometry" />
        </mxCell>
        <mxCell id="qBw_OB1yYFoaNtmwpmEW-3" value="+ GetPersistenciaCompania(): IPersitenciaCompania" style="text;strokeColor=none;fillColor=none;align=left;verticalAlign=top;spacingLeft=4;spacingRight=4;overflow=hidden;rotatable=0;points=[[0,0.5],[1,0.5]];portConstraint=eastwest;fontStyle=4" parent="4FLnIjoYqeW0npmRk8-U-20" vertex="1">
          <mxGeometry y="60" width="380" height="26" as="geometry" />
        </mxCell>
        <mxCell id="4FLnIjoYqeW0npmRk8-U-23" value="+ GetPersistenciaEmpleado(): IPersistenciaEmpleado" style="text;strokeColor=none;fillColor=none;align=left;verticalAlign=top;spacingLeft=4;spacingRight=4;overflow=hidden;rotatable=0;points=[[0,0.5],[1,0.5]];portConstraint=eastwest;fontStyle=4" parent="4FLnIjoYqeW0npmRk8-U-20" vertex="1">
          <mxGeometry y="86" width="380" height="26" as="geometry" />
        </mxCell>
        <mxCell id="qBw_OB1yYFoaNtmwpmEW-4" value="+GetPersistenciaInternacional(): IPersistenciaInternacional" style="text;strokeColor=none;fillColor=none;align=left;verticalAlign=top;spacingLeft=4;spacingRight=4;overflow=hidden;rotatable=0;points=[[0,0.5],[1,0.5]];portConstraint=eastwest;fontStyle=4" parent="4FLnIjoYqeW0npmRk8-U-20" vertex="1">
          <mxGeometry y="112" width="380" height="26" as="geometry" />
        </mxCell>
        <mxCell id="iTHzH2P1z4E5CIiTlRkQ-4" value="+GetPersistenciaNacional(); IPersistenicaNacional" style="text;strokeColor=none;fillColor=none;align=left;verticalAlign=top;spacingLeft=4;spacingRight=4;overflow=hidden;rotatable=0;points=[[0,0.5],[1,0.5]];portConstraint=eastwest;fontStyle=4" parent="4FLnIjoYqeW0npmRk8-U-20" vertex="1">
          <mxGeometry y="138" width="380" height="26" as="geometry" />
        </mxCell>
        <mxCell id="KsVdHm2s3OmVLTwSaz9g-100" value="+GetPersistenciaParada(); IPersistenicaParada" style="text;strokeColor=none;fillColor=none;align=left;verticalAlign=top;spacingLeft=4;spacingRight=4;overflow=hidden;rotatable=0;points=[[0,0.5],[1,0.5]];portConstraint=eastwest;fontStyle=4" vertex="1" parent="4FLnIjoYqeW0npmRk8-U-20">
          <mxGeometry y="164" width="380" height="26" as="geometry" />
        </mxCell>
        <mxCell id="KsVdHm2s3OmVLTwSaz9g-101" value="+GetPersistenciaViaje(); IPersistenicaViaje" style="text;strokeColor=none;fillColor=none;align=left;verticalAlign=top;spacingLeft=4;spacingRight=4;overflow=hidden;rotatable=0;points=[[0,0.5],[1,0.5]];portConstraint=eastwest;fontStyle=4" vertex="1" parent="4FLnIjoYqeW0npmRk8-U-20">
          <mxGeometry y="190" width="380" height="26" as="geometry" />
        </mxCell>
        <mxCell id="KsVdHm2s3OmVLTwSaz9g-102" value="" style="html=1;outlineConnect=0;whiteSpace=wrap;fillColor=#AFFFAF;shape=mxgraph.archimate3.interface;rotation=0;" vertex="1" parent="Zzf7KM-flJiP9QOSgCD5-37">
          <mxGeometry x="750" y="110" width="38.75" height="18.5" as="geometry" />
        </mxCell>
        <mxCell id="KsVdHm2s3OmVLTwSaz9g-103" value="«interface»&lt;br&gt;&lt;b&gt;IPCompania&lt;/b&gt;" style="html=1;" vertex="1" parent="Zzf7KM-flJiP9QOSgCD5-37">
          <mxGeometry x="800" y="99.75" width="94" height="39" as="geometry" />
        </mxCell>
        <mxCell id="KsVdHm2s3OmVLTwSaz9g-106" value="PersistenciaEmpleado" style="swimlane;fontStyle=1;align=center;verticalAlign=top;childLayout=stackLayout;horizontal=1;startSize=26;horizontalStack=0;resizeParent=1;resizeParentMax=0;resizeLast=0;collapsible=1;marginBottom=0;" vertex="1" parent="Zzf7KM-flJiP9QOSgCD5-37">
          <mxGeometry x="930" y="348.75" width="300" height="142" as="geometry" />
        </mxCell>
        <mxCell id="KsVdHm2s3OmVLTwSaz9g-107" value="- instancia: PersistenciaEmpleado " style="text;strokeColor=none;fillColor=none;align=left;verticalAlign=top;spacingLeft=4;spacingRight=4;overflow=hidden;rotatable=0;points=[[0,0.5],[1,0.5]];portConstraint=eastwest;" vertex="1" parent="KsVdHm2s3OmVLTwSaz9g-106">
          <mxGeometry y="26" width="300" height="26" as="geometry" />
        </mxCell>
        <mxCell id="KsVdHm2s3OmVLTwSaz9g-108" value="" style="line;strokeWidth=1;fillColor=none;align=left;verticalAlign=middle;spacingTop=-1;spacingLeft=3;spacingRight=3;rotatable=0;labelPosition=right;points=[];portConstraint=eastwest;strokeColor=inherit;" vertex="1" parent="KsVdHm2s3OmVLTwSaz9g-106">
          <mxGeometry y="52" width="300" height="8" as="geometry" />
        </mxCell>
        <mxCell id="KsVdHm2s3OmVLTwSaz9g-109" value="+GetInstancia(): PersistenciaEmpleado" style="text;strokeColor=none;fillColor=none;align=left;verticalAlign=top;spacingLeft=4;spacingRight=4;overflow=hidden;rotatable=0;points=[[0,0.5],[1,0.5]];portConstraint=eastwest;fontStyle=4" vertex="1" parent="KsVdHm2s3OmVLTwSaz9g-106">
          <mxGeometry y="60" width="300" height="30" as="geometry" />
        </mxCell>
        <mxCell id="KsVdHm2s3OmVLTwSaz9g-110" value="+Buscar(pNombUsu: string): Empleado" style="text;strokeColor=none;fillColor=none;align=left;verticalAlign=top;spacingLeft=4;spacingRight=4;overflow=hidden;rotatable=0;points=[[0,0.5],[1,0.5]];portConstraint=eastwest;fontStyle=0" vertex="1" parent="KsVdHm2s3OmVLTwSaz9g-106">
          <mxGeometry y="90" width="300" height="26" as="geometry" />
        </mxCell>
        <mxCell id="KsVdHm2s3OmVLTwSaz9g-111" value="+Logueo(pNomUsu: string, pPass: string): Empleado" style="text;strokeColor=none;fillColor=none;align=left;verticalAlign=top;spacingLeft=4;spacingRight=4;overflow=hidden;rotatable=0;points=[[0,0.5],[1,0.5]];portConstraint=eastwest;fontStyle=0" vertex="1" parent="KsVdHm2s3OmVLTwSaz9g-106">
          <mxGeometry y="116" width="300" height="26" as="geometry" />
        </mxCell>
        <mxCell id="KsVdHm2s3OmVLTwSaz9g-113" value="" style="html=1;outlineConnect=0;whiteSpace=wrap;fillColor=#AFFFAF;shape=mxgraph.archimate3.interface;rotation=0;" vertex="1" parent="Zzf7KM-flJiP9QOSgCD5-37">
          <mxGeometry x="1230" y="378.75" width="38.75" height="18.5" as="geometry" />
        </mxCell>
        <mxCell id="KsVdHm2s3OmVLTwSaz9g-114" value="«interface»&lt;br&gt;&lt;b&gt;IPEmpleado&lt;/b&gt;" style="html=1;" vertex="1" parent="Zzf7KM-flJiP9QOSgCD5-37">
          <mxGeometry x="1280" y="368.5" width="94" height="39" as="geometry" />
        </mxCell>
        <mxCell id="KsVdHm2s3OmVLTwSaz9g-116" value="PersistenciaInternacional" style="swimlane;fontStyle=1;align=center;verticalAlign=top;childLayout=stackLayout;horizontal=1;startSize=26;horizontalStack=0;resizeParent=1;resizeParentMax=0;resizeLast=0;collapsible=1;marginBottom=0;" vertex="1" parent="Zzf7KM-flJiP9QOSgCD5-37">
          <mxGeometry x="24" y="80" width="300" height="246" as="geometry" />
        </mxCell>
        <mxCell id="KsVdHm2s3OmVLTwSaz9g-117" value="- instancia: PersistenciaInternacional" style="text;strokeColor=none;fillColor=none;align=left;verticalAlign=top;spacingLeft=4;spacingRight=4;overflow=hidden;rotatable=0;points=[[0,0.5],[1,0.5]];portConstraint=eastwest;" vertex="1" parent="KsVdHm2s3OmVLTwSaz9g-116">
          <mxGeometry y="26" width="300" height="26" as="geometry" />
        </mxCell>
        <mxCell id="KsVdHm2s3OmVLTwSaz9g-118" value="" style="line;strokeWidth=1;fillColor=none;align=left;verticalAlign=middle;spacingTop=-1;spacingLeft=3;spacingRight=3;rotatable=0;labelPosition=right;points=[];portConstraint=eastwest;strokeColor=inherit;" vertex="1" parent="KsVdHm2s3OmVLTwSaz9g-116">
          <mxGeometry y="52" width="300" height="8" as="geometry" />
        </mxCell>
        <mxCell id="KsVdHm2s3OmVLTwSaz9g-119" value="+GetInstancia(): PersistenciaInternacional" style="text;strokeColor=none;fillColor=none;align=left;verticalAlign=top;spacingLeft=4;spacingRight=4;overflow=hidden;rotatable=0;points=[[0,0.5],[1,0.5]];portConstraint=eastwest;fontStyle=4" vertex="1" parent="KsVdHm2s3OmVLTwSaz9g-116">
          <mxGeometry y="60" width="300" height="30" as="geometry" />
        </mxCell>
        <mxCell id="KsVdHm2s3OmVLTwSaz9g-120" value="+BuscarI(pCodTerminal: string): Internacional" style="text;strokeColor=none;fillColor=none;align=left;verticalAlign=top;spacingLeft=4;spacingRight=4;overflow=hidden;rotatable=0;points=[[0,0.5],[1,0.5]];portConstraint=eastwest;fontStyle=0" vertex="1" parent="KsVdHm2s3OmVLTwSaz9g-116">
          <mxGeometry y="90" width="300" height="26" as="geometry" />
        </mxCell>
        <mxCell id="KsVdHm2s3OmVLTwSaz9g-121" value="+BuscarIActiva(pCodTerminal: string): Internacional" style="text;strokeColor=none;fillColor=none;align=left;verticalAlign=top;spacingLeft=4;spacingRight=4;overflow=hidden;rotatable=0;points=[[0,0.5],[1,0.5]];portConstraint=eastwest;fontStyle=0" vertex="1" parent="KsVdHm2s3OmVLTwSaz9g-116">
          <mxGeometry y="116" width="300" height="26" as="geometry" />
        </mxCell>
        <mxCell id="KsVdHm2s3OmVLTwSaz9g-122" value="+AltaI(pUnaTerminal: Internacional)" style="text;strokeColor=none;fillColor=none;align=left;verticalAlign=top;spacingLeft=4;spacingRight=4;overflow=hidden;rotatable=0;points=[[0,0.5],[1,0.5]];portConstraint=eastwest;fontStyle=0" vertex="1" parent="KsVdHm2s3OmVLTwSaz9g-116">
          <mxGeometry y="142" width="300" height="26" as="geometry" />
        </mxCell>
        <mxCell id="KsVdHm2s3OmVLTwSaz9g-126" value="+ModificarI(pUnaTerminal: Internacional)" style="text;strokeColor=none;fillColor=none;align=left;verticalAlign=top;spacingLeft=4;spacingRight=4;overflow=hidden;rotatable=0;points=[[0,0.5],[1,0.5]];portConstraint=eastwest;fontStyle=0" vertex="1" parent="KsVdHm2s3OmVLTwSaz9g-116">
          <mxGeometry y="168" width="300" height="26" as="geometry" />
        </mxCell>
        <mxCell id="KsVdHm2s3OmVLTwSaz9g-125" value="+BajaI(pUnaTerminal: Internacional)" style="text;strokeColor=none;fillColor=none;align=left;verticalAlign=top;spacingLeft=4;spacingRight=4;overflow=hidden;rotatable=0;points=[[0,0.5],[1,0.5]];portConstraint=eastwest;fontStyle=0" vertex="1" parent="KsVdHm2s3OmVLTwSaz9g-116">
          <mxGeometry y="194" width="300" height="26" as="geometry" />
        </mxCell>
        <mxCell id="KsVdHm2s3OmVLTwSaz9g-127" value="+ListarInternacionales(): Lista de Internacionales" style="text;strokeColor=none;fillColor=none;align=left;verticalAlign=top;spacingLeft=4;spacingRight=4;overflow=hidden;rotatable=0;points=[[0,0.5],[1,0.5]];portConstraint=eastwest;fontStyle=0" vertex="1" parent="KsVdHm2s3OmVLTwSaz9g-116">
          <mxGeometry y="220" width="300" height="26" as="geometry" />
        </mxCell>
        <mxCell id="KsVdHm2s3OmVLTwSaz9g-123" value="" style="html=1;outlineConnect=0;whiteSpace=wrap;fillColor=#AFFFAF;shape=mxgraph.archimate3.interface;rotation=0;" vertex="1" parent="Zzf7KM-flJiP9QOSgCD5-37">
          <mxGeometry x="324" y="110" width="38.75" height="18.5" as="geometry" />
        </mxCell>
        <mxCell id="KsVdHm2s3OmVLTwSaz9g-124" value="«interface»&lt;br&gt;&lt;b&gt;IPInternacional&lt;/b&gt;" style="html=1;" vertex="1" parent="Zzf7KM-flJiP9QOSgCD5-37">
          <mxGeometry x="374" y="99.75" width="94" height="39" as="geometry" />
        </mxCell>
        <mxCell id="KsVdHm2s3OmVLTwSaz9g-128" value="PersistenciaNacional" style="swimlane;fontStyle=1;align=center;verticalAlign=top;childLayout=stackLayout;horizontal=1;startSize=26;horizontalStack=0;resizeParent=1;resizeParentMax=0;resizeLast=0;collapsible=1;marginBottom=0;" vertex="1" parent="Zzf7KM-flJiP9QOSgCD5-37">
          <mxGeometry x="24" y="353" width="300" height="246" as="geometry" />
        </mxCell>
        <mxCell id="KsVdHm2s3OmVLTwSaz9g-129" value="- instancia: PersistenciaNacional" style="text;strokeColor=none;fillColor=none;align=left;verticalAlign=top;spacingLeft=4;spacingRight=4;overflow=hidden;rotatable=0;points=[[0,0.5],[1,0.5]];portConstraint=eastwest;" vertex="1" parent="KsVdHm2s3OmVLTwSaz9g-128">
          <mxGeometry y="26" width="300" height="26" as="geometry" />
        </mxCell>
        <mxCell id="KsVdHm2s3OmVLTwSaz9g-130" value="" style="line;strokeWidth=1;fillColor=none;align=left;verticalAlign=middle;spacingTop=-1;spacingLeft=3;spacingRight=3;rotatable=0;labelPosition=right;points=[];portConstraint=eastwest;strokeColor=inherit;" vertex="1" parent="KsVdHm2s3OmVLTwSaz9g-128">
          <mxGeometry y="52" width="300" height="8" as="geometry" />
        </mxCell>
        <mxCell id="KsVdHm2s3OmVLTwSaz9g-131" value="+GetInstancia(): PersistenciaNacional" style="text;strokeColor=none;fillColor=none;align=left;verticalAlign=top;spacingLeft=4;spacingRight=4;overflow=hidden;rotatable=0;points=[[0,0.5],[1,0.5]];portConstraint=eastwest;fontStyle=4" vertex="1" parent="KsVdHm2s3OmVLTwSaz9g-128">
          <mxGeometry y="60" width="300" height="30" as="geometry" />
        </mxCell>
        <mxCell id="KsVdHm2s3OmVLTwSaz9g-132" value="+BuscarN(pCodTerminal: string): Nacional" style="text;strokeColor=none;fillColor=none;align=left;verticalAlign=top;spacingLeft=4;spacingRight=4;overflow=hidden;rotatable=0;points=[[0,0.5],[1,0.5]];portConstraint=eastwest;fontStyle=0" vertex="1" parent="KsVdHm2s3OmVLTwSaz9g-128">
          <mxGeometry y="90" width="300" height="26" as="geometry" />
        </mxCell>
        <mxCell id="KsVdHm2s3OmVLTwSaz9g-133" value="+BuscarNActiva(pCodTerminal: string): Nacional" style="text;strokeColor=none;fillColor=none;align=left;verticalAlign=top;spacingLeft=4;spacingRight=4;overflow=hidden;rotatable=0;points=[[0,0.5],[1,0.5]];portConstraint=eastwest;fontStyle=0" vertex="1" parent="KsVdHm2s3OmVLTwSaz9g-128">
          <mxGeometry y="116" width="300" height="26" as="geometry" />
        </mxCell>
        <mxCell id="KsVdHm2s3OmVLTwSaz9g-134" value="+AltaN(pUnaTerminal: Nacional)" style="text;strokeColor=none;fillColor=none;align=left;verticalAlign=top;spacingLeft=4;spacingRight=4;overflow=hidden;rotatable=0;points=[[0,0.5],[1,0.5]];portConstraint=eastwest;fontStyle=0" vertex="1" parent="KsVdHm2s3OmVLTwSaz9g-128">
          <mxGeometry y="142" width="300" height="26" as="geometry" />
        </mxCell>
        <mxCell id="KsVdHm2s3OmVLTwSaz9g-135" value="+ModificarN(pUnaTerminal: Nacional)" style="text;strokeColor=none;fillColor=none;align=left;verticalAlign=top;spacingLeft=4;spacingRight=4;overflow=hidden;rotatable=0;points=[[0,0.5],[1,0.5]];portConstraint=eastwest;fontStyle=0" vertex="1" parent="KsVdHm2s3OmVLTwSaz9g-128">
          <mxGeometry y="168" width="300" height="26" as="geometry" />
        </mxCell>
        <mxCell id="KsVdHm2s3OmVLTwSaz9g-136" value="+BajaN(pUnaTerminal: Nacional)" style="text;strokeColor=none;fillColor=none;align=left;verticalAlign=top;spacingLeft=4;spacingRight=4;overflow=hidden;rotatable=0;points=[[0,0.5],[1,0.5]];portConstraint=eastwest;fontStyle=0" vertex="1" parent="KsVdHm2s3OmVLTwSaz9g-128">
          <mxGeometry y="194" width="300" height="26" as="geometry" />
        </mxCell>
        <mxCell id="KsVdHm2s3OmVLTwSaz9g-137" value="+ListarNacionales(): Lista de Nacionales" style="text;strokeColor=none;fillColor=none;align=left;verticalAlign=top;spacingLeft=4;spacingRight=4;overflow=hidden;rotatable=0;points=[[0,0.5],[1,0.5]];portConstraint=eastwest;fontStyle=0" vertex="1" parent="KsVdHm2s3OmVLTwSaz9g-128">
          <mxGeometry y="220" width="300" height="26" as="geometry" />
        </mxCell>
        <mxCell id="KsVdHm2s3OmVLTwSaz9g-138" value="" style="html=1;outlineConnect=0;whiteSpace=wrap;fillColor=#AFFFAF;shape=mxgraph.archimate3.interface;rotation=0;" vertex="1" parent="Zzf7KM-flJiP9QOSgCD5-37">
          <mxGeometry x="324" y="383" width="38.75" height="18.5" as="geometry" />
        </mxCell>
        <mxCell id="KsVdHm2s3OmVLTwSaz9g-139" value="«interface»&lt;br&gt;&lt;b&gt;IPNacional&lt;/b&gt;" style="html=1;" vertex="1" parent="Zzf7KM-flJiP9QOSgCD5-37">
          <mxGeometry x="374" y="372.75" width="94" height="39" as="geometry" />
        </mxCell>
        <mxCell id="KsVdHm2s3OmVLTwSaz9g-140" value="PersistenciaParada" style="swimlane;fontStyle=1;align=center;verticalAlign=top;childLayout=stackLayout;horizontal=1;startSize=26;horizontalStack=0;resizeParent=1;resizeParentMax=0;resizeLast=0;collapsible=1;marginBottom=0;" vertex="1" parent="Zzf7KM-flJiP9QOSgCD5-37">
          <mxGeometry x="476" y="290" width="300" height="156" as="geometry" />
        </mxCell>
        <mxCell id="KsVdHm2s3OmVLTwSaz9g-141" value="- instancia: PersistenciaParada" style="text;strokeColor=none;fillColor=none;align=left;verticalAlign=top;spacingLeft=4;spacingRight=4;overflow=hidden;rotatable=0;points=[[0,0.5],[1,0.5]];portConstraint=eastwest;" vertex="1" parent="KsVdHm2s3OmVLTwSaz9g-140">
          <mxGeometry y="26" width="300" height="26" as="geometry" />
        </mxCell>
        <mxCell id="KsVdHm2s3OmVLTwSaz9g-142" value="" style="line;strokeWidth=1;fillColor=none;align=left;verticalAlign=middle;spacingTop=-1;spacingLeft=3;spacingRight=3;rotatable=0;labelPosition=right;points=[];portConstraint=eastwest;strokeColor=inherit;" vertex="1" parent="KsVdHm2s3OmVLTwSaz9g-140">
          <mxGeometry y="52" width="300" height="8" as="geometry" />
        </mxCell>
        <mxCell id="KsVdHm2s3OmVLTwSaz9g-143" value="+GetInstancia(): PersistenciaParada" style="text;strokeColor=none;fillColor=none;align=left;verticalAlign=top;spacingLeft=4;spacingRight=4;overflow=hidden;rotatable=0;points=[[0,0.5],[1,0.5]];portConstraint=eastwest;fontStyle=4" vertex="1" parent="KsVdHm2s3OmVLTwSaz9g-140">
          <mxGeometry y="60" width="300" height="30" as="geometry" />
        </mxCell>
        <mxCell id="KsVdHm2s3OmVLTwSaz9g-144" value="+AgregarParada(unaParada: Parada, pCodViaje: int,&#xa;_pTransaccion: SqlTransaction)&#xa;" style="text;strokeColor=none;fillColor=none;align=left;verticalAlign=top;spacingLeft=4;spacingRight=4;overflow=hidden;rotatable=0;points=[[0,0.5],[1,0.5]];portConstraint=eastwest;fontStyle=0" vertex="1" parent="KsVdHm2s3OmVLTwSaz9g-140">
          <mxGeometry y="90" width="300" height="40" as="geometry" />
        </mxCell>
        <mxCell id="KsVdHm2s3OmVLTwSaz9g-145" value="+ListarRecorrido(unViaje: Viaje): Lista de Paradas" style="text;strokeColor=none;fillColor=none;align=left;verticalAlign=top;spacingLeft=4;spacingRight=4;overflow=hidden;rotatable=0;points=[[0,0.5],[1,0.5]];portConstraint=eastwest;fontStyle=0" vertex="1" parent="KsVdHm2s3OmVLTwSaz9g-140">
          <mxGeometry y="130" width="300" height="26" as="geometry" />
        </mxCell>
        <mxCell id="KsVdHm2s3OmVLTwSaz9g-146" value="" style="html=1;outlineConnect=0;whiteSpace=wrap;fillColor=#AFFFAF;shape=mxgraph.archimate3.interface;rotation=0;" vertex="1" parent="Zzf7KM-flJiP9QOSgCD5-37">
          <mxGeometry x="776" y="320" width="38.75" height="18.5" as="geometry" />
        </mxCell>
        <mxCell id="KsVdHm2s3OmVLTwSaz9g-147" value="«interface»&lt;br&gt;&lt;b&gt;IPParada&lt;/b&gt;" style="html=1;" vertex="1" parent="Zzf7KM-flJiP9QOSgCD5-37">
          <mxGeometry x="826" y="309.75" width="94" height="39" as="geometry" />
        </mxCell>
        <mxCell id="KsVdHm2s3OmVLTwSaz9g-148" value="PersistenciaViaje" style="swimlane;fontStyle=1;align=center;verticalAlign=top;childLayout=stackLayout;horizontal=1;startSize=26;horizontalStack=0;resizeParent=1;resizeParentMax=0;resizeLast=0;collapsible=1;marginBottom=0;" vertex="1" parent="Zzf7KM-flJiP9QOSgCD5-37">
          <mxGeometry x="476" y="470" width="300" height="168" as="geometry" />
        </mxCell>
        <mxCell id="KsVdHm2s3OmVLTwSaz9g-149" value="- instancia: PersistenciaViaje" style="text;strokeColor=none;fillColor=none;align=left;verticalAlign=top;spacingLeft=4;spacingRight=4;overflow=hidden;rotatable=0;points=[[0,0.5],[1,0.5]];portConstraint=eastwest;" vertex="1" parent="KsVdHm2s3OmVLTwSaz9g-148">
          <mxGeometry y="26" width="300" height="26" as="geometry" />
        </mxCell>
        <mxCell id="KsVdHm2s3OmVLTwSaz9g-150" value="" style="line;strokeWidth=1;fillColor=none;align=left;verticalAlign=middle;spacingTop=-1;spacingLeft=3;spacingRight=3;rotatable=0;labelPosition=right;points=[];portConstraint=eastwest;strokeColor=inherit;" vertex="1" parent="KsVdHm2s3OmVLTwSaz9g-148">
          <mxGeometry y="52" width="300" height="8" as="geometry" />
        </mxCell>
        <mxCell id="KsVdHm2s3OmVLTwSaz9g-151" value="+GetInstancia(): PersistenciaViaje" style="text;strokeColor=none;fillColor=none;align=left;verticalAlign=top;spacingLeft=4;spacingRight=4;overflow=hidden;rotatable=0;points=[[0,0.5],[1,0.5]];portConstraint=eastwest;fontStyle=4" vertex="1" parent="KsVdHm2s3OmVLTwSaz9g-148">
          <mxGeometry y="60" width="300" height="30" as="geometry" />
        </mxCell>
        <mxCell id="KsVdHm2s3OmVLTwSaz9g-152" value="+AltaViaje(unViaje: Viaje)" style="text;strokeColor=none;fillColor=none;align=left;verticalAlign=top;spacingLeft=4;spacingRight=4;overflow=hidden;rotatable=0;points=[[0,0.5],[1,0.5]];portConstraint=eastwest;fontStyle=0" vertex="1" parent="KsVdHm2s3OmVLTwSaz9g-148">
          <mxGeometry y="90" width="300" height="26" as="geometry" />
        </mxCell>
        <mxCell id="KsVdHm2s3OmVLTwSaz9g-153" value="+ViajesSinPartir(): Lista de Viajes" style="text;strokeColor=none;fillColor=none;align=left;verticalAlign=top;spacingLeft=4;spacingRight=4;overflow=hidden;rotatable=0;points=[[0,0.5],[1,0.5]];portConstraint=eastwest;fontStyle=0" vertex="1" parent="KsVdHm2s3OmVLTwSaz9g-148">
          <mxGeometry y="116" width="300" height="26" as="geometry" />
        </mxCell>
        <mxCell id="KsVdHm2s3OmVLTwSaz9g-164" value="+ViajesDelMes(): Lista de Viajes" style="text;strokeColor=none;fillColor=none;align=left;verticalAlign=top;spacingLeft=4;spacingRight=4;overflow=hidden;rotatable=0;points=[[0,0.5],[1,0.5]];portConstraint=eastwest;fontStyle=0" vertex="1" parent="KsVdHm2s3OmVLTwSaz9g-148">
          <mxGeometry y="142" width="300" height="26" as="geometry" />
        </mxCell>
        <mxCell id="KsVdHm2s3OmVLTwSaz9g-154" value="" style="html=1;outlineConnect=0;whiteSpace=wrap;fillColor=#AFFFAF;shape=mxgraph.archimate3.interface;rotation=0;" vertex="1" parent="Zzf7KM-flJiP9QOSgCD5-37">
          <mxGeometry x="776" y="500" width="38.75" height="18.5" as="geometry" />
        </mxCell>
        <mxCell id="KsVdHm2s3OmVLTwSaz9g-155" value="«interface»&lt;br&gt;&lt;b&gt;IPViaje&lt;/b&gt;" style="html=1;" vertex="1" parent="Zzf7KM-flJiP9QOSgCD5-37">
          <mxGeometry x="826" y="489.75" width="94" height="39" as="geometry" />
        </mxCell>
        <mxCell id="Zzf7KM-flJiP9QOSgCD5-168" value="EC" style="shape=folder;fontStyle=1;tabWidth=110;tabHeight=30;tabPosition=left;html=1;boundedLbl=1;labelInHeader=1;container=1;collapsible=0;recursiveResize=0;" parent="1" vertex="1">
          <mxGeometry x="1040" y="730" width="840" height="620" as="geometry" />
        </mxCell>
        <mxCell id="KsVdHm2s3OmVLTwSaz9g-49" value="Nacional" style="swimlane;fontStyle=0;align=center;verticalAlign=top;childLayout=stackLayout;horizontal=1;startSize=26;horizontalStack=0;resizeParent=1;resizeLast=0;collapsible=1;marginBottom=0;rounded=0;shadow=0;strokeWidth=1;fillColor=#6F0000;strokeColor=#6F0000;fontColor=#ffffff;" vertex="1" parent="Zzf7KM-flJiP9QOSgCD5-168">
          <mxGeometry x="200" y="390" width="160" height="80" as="geometry">
            <mxRectangle x="230" y="140" width="160" height="26" as="alternateBounds" />
          </mxGeometry>
        </mxCell>
        <mxCell id="KsVdHm2s3OmVLTwSaz9g-50" value="- Taxi: boolean" style="text;align=left;verticalAlign=top;spacingLeft=4;spacingRight=4;overflow=hidden;rotatable=0;points=[[0,0.5],[1,0.5]];portConstraint=eastwest;" vertex="1" parent="KsVdHm2s3OmVLTwSaz9g-49">
          <mxGeometry y="26" width="160" height="26" as="geometry" />
        </mxCell>
        <mxCell id="KsVdHm2s3OmVLTwSaz9g-51" value="" style="line;html=1;strokeWidth=1;align=left;verticalAlign=middle;spacingTop=-1;spacingLeft=3;spacingRight=3;rotatable=0;labelPosition=right;points=[];portConstraint=eastwest;" vertex="1" parent="KsVdHm2s3OmVLTwSaz9g-49">
          <mxGeometry y="52" width="160" height="8" as="geometry" />
        </mxCell>
        <mxCell id="KsVdHm2s3OmVLTwSaz9g-52" value="" style="triangle;whiteSpace=wrap;html=1;rotation=-90;" vertex="1" parent="Zzf7KM-flJiP9QOSgCD5-168">
          <mxGeometry x="140" y="260" width="60" height="80" as="geometry" />
        </mxCell>
        <mxCell id="KsVdHm2s3OmVLTwSaz9g-53" value="" style="endArrow=none;html=1;rounded=0;exitX=0.623;exitY=0.004;exitDx=0;exitDy=0;exitPerimeter=0;entryX=-0.002;entryY=0.327;entryDx=0;entryDy=0;entryPerimeter=0;" edge="1" parent="Zzf7KM-flJiP9QOSgCD5-168" source="KsVdHm2s3OmVLTwSaz9g-55" target="KsVdHm2s3OmVLTwSaz9g-52">
          <mxGeometry width="50" height="50" relative="1" as="geometry">
            <mxPoint x="120" y="390" as="sourcePoint" />
            <mxPoint x="160" y="340" as="targetPoint" />
          </mxGeometry>
        </mxCell>
        <mxCell id="KsVdHm2s3OmVLTwSaz9g-54" value="" style="endArrow=none;html=1;rounded=0;exitX=0.147;exitY=-0.001;exitDx=0;exitDy=0;exitPerimeter=0;" edge="1" parent="Zzf7KM-flJiP9QOSgCD5-168" source="KsVdHm2s3OmVLTwSaz9g-49">
          <mxGeometry width="50" height="50" relative="1" as="geometry">
            <mxPoint x="220" y="390" as="sourcePoint" />
            <mxPoint x="180" y="330" as="targetPoint" />
          </mxGeometry>
        </mxCell>
        <mxCell id="KsVdHm2s3OmVLTwSaz9g-55" value="Internacional" style="swimlane;fontStyle=0;align=center;verticalAlign=top;childLayout=stackLayout;horizontal=1;startSize=26;horizontalStack=0;resizeParent=1;resizeLast=0;collapsible=1;marginBottom=0;rounded=0;shadow=0;strokeWidth=1;fillColor=#6F0000;fontColor=#ffffff;strokeColor=#6F0000;" vertex="1" parent="Zzf7KM-flJiP9QOSgCD5-168">
          <mxGeometry x="20" y="390" width="160" height="80" as="geometry">
            <mxRectangle x="230" y="140" width="160" height="26" as="alternateBounds" />
          </mxGeometry>
        </mxCell>
        <mxCell id="KsVdHm2s3OmVLTwSaz9g-56" value="- Pais: string" style="text;align=left;verticalAlign=top;spacingLeft=4;spacingRight=4;overflow=hidden;rotatable=0;points=[[0,0.5],[1,0.5]];portConstraint=eastwest;" vertex="1" parent="KsVdHm2s3OmVLTwSaz9g-55">
          <mxGeometry y="26" width="160" height="26" as="geometry" />
        </mxCell>
        <mxCell id="KsVdHm2s3OmVLTwSaz9g-57" value="" style="line;html=1;strokeWidth=1;align=left;verticalAlign=middle;spacingTop=-1;spacingLeft=3;spacingRight=3;rotatable=0;labelPosition=right;points=[];portConstraint=eastwest;" vertex="1" parent="KsVdHm2s3OmVLTwSaz9g-55">
          <mxGeometry y="52" width="160" height="8" as="geometry" />
        </mxCell>
        <mxCell id="KsVdHm2s3OmVLTwSaz9g-58" value="Terminal" style="swimlane;fontStyle=0;align=center;verticalAlign=top;childLayout=stackLayout;horizontal=1;startSize=26;horizontalStack=0;resizeParent=1;resizeLast=0;collapsible=1;marginBottom=0;rounded=0;shadow=0;strokeWidth=1;fillColor=#AD1807;fontColor=#ffffff;strokeColor=#6F0000;" vertex="1" parent="Zzf7KM-flJiP9QOSgCD5-168">
          <mxGeometry x="90" y="157" width="160" height="112" as="geometry">
            <mxRectangle x="230" y="140" width="160" height="26" as="alternateBounds" />
          </mxGeometry>
        </mxCell>
        <mxCell id="KsVdHm2s3OmVLTwSaz9g-59" value="- CodTerminal: string" style="text;align=left;verticalAlign=top;spacingLeft=4;spacingRight=4;overflow=hidden;rotatable=0;points=[[0,0.5],[1,0.5]];portConstraint=eastwest;" vertex="1" parent="KsVdHm2s3OmVLTwSaz9g-58">
          <mxGeometry y="26" width="160" height="26" as="geometry" />
        </mxCell>
        <mxCell id="KsVdHm2s3OmVLTwSaz9g-60" value="- Ciudad: string" style="text;align=left;verticalAlign=top;spacingLeft=4;spacingRight=4;overflow=hidden;rotatable=0;points=[[0,0.5],[1,0.5]];portConstraint=eastwest;rounded=0;shadow=0;html=0;" vertex="1" parent="KsVdHm2s3OmVLTwSaz9g-58">
          <mxGeometry y="52" width="160" height="26" as="geometry" />
        </mxCell>
        <mxCell id="KsVdHm2s3OmVLTwSaz9g-61" value="" style="line;html=1;strokeWidth=1;align=left;verticalAlign=middle;spacingTop=-1;spacingLeft=3;spacingRight=3;rotatable=0;labelPosition=right;points=[];portConstraint=eastwest;" vertex="1" parent="KsVdHm2s3OmVLTwSaz9g-58">
          <mxGeometry y="78" width="160" height="8" as="geometry" />
        </mxCell>
        <mxCell id="KsVdHm2s3OmVLTwSaz9g-62" value="Viaje" style="swimlane;fontStyle=0;align=center;verticalAlign=top;childLayout=stackLayout;horizontal=1;startSize=26;horizontalStack=0;resizeParent=1;resizeLast=0;collapsible=1;marginBottom=0;rounded=0;shadow=0;strokeWidth=1;fillColor=#6a00ff;strokeColor=#3700CC;fontColor=#ffffff;" vertex="1" parent="Zzf7KM-flJiP9QOSgCD5-168">
          <mxGeometry x="380" y="160" width="210" height="210" as="geometry">
            <mxRectangle x="230" y="140" width="160" height="26" as="alternateBounds" />
          </mxGeometry>
        </mxCell>
        <mxCell id="KsVdHm2s3OmVLTwSaz9g-63" value="- CodViaje: int" style="text;align=left;verticalAlign=top;spacingLeft=4;spacingRight=4;overflow=hidden;rotatable=0;points=[[0,0.5],[1,0.5]];portConstraint=eastwest;" vertex="1" parent="KsVdHm2s3OmVLTwSaz9g-62">
          <mxGeometry y="26" width="210" height="26" as="geometry" />
        </mxCell>
        <mxCell id="KsVdHm2s3OmVLTwSaz9g-64" value="- FechaYHoraPartida: DateTime" style="text;align=left;verticalAlign=top;spacingLeft=4;spacingRight=4;overflow=hidden;rotatable=0;points=[[0,0.5],[1,0.5]];portConstraint=eastwest;rounded=0;shadow=0;html=0;" vertex="1" parent="KsVdHm2s3OmVLTwSaz9g-62">
          <mxGeometry y="52" width="210" height="26" as="geometry" />
        </mxCell>
        <mxCell id="KsVdHm2s3OmVLTwSaz9g-65" value="- FechaYHoraArribo: DateTime" style="text;align=left;verticalAlign=top;spacingLeft=4;spacingRight=4;overflow=hidden;rotatable=0;points=[[0,0.5],[1,0.5]];portConstraint=eastwest;rounded=0;shadow=0;html=0;" vertex="1" parent="KsVdHm2s3OmVLTwSaz9g-62">
          <mxGeometry y="78" width="210" height="26" as="geometry" />
        </mxCell>
        <mxCell id="KsVdHm2s3OmVLTwSaz9g-66" value="- Precio: int" style="text;align=left;verticalAlign=top;spacingLeft=4;spacingRight=4;overflow=hidden;rotatable=0;points=[[0,0.5],[1,0.5]];portConstraint=eastwest;rounded=0;shadow=0;html=0;" vertex="1" parent="KsVdHm2s3OmVLTwSaz9g-62">
          <mxGeometry y="104" width="210" height="26" as="geometry" />
        </mxCell>
        <mxCell id="KsVdHm2s3OmVLTwSaz9g-67" value="- Anden: int" style="text;align=left;verticalAlign=top;spacingLeft=4;spacingRight=4;overflow=hidden;rotatable=0;points=[[0,0.5],[1,0.5]];portConstraint=eastwest;rounded=0;shadow=0;html=0;" vertex="1" parent="KsVdHm2s3OmVLTwSaz9g-62">
          <mxGeometry y="130" width="210" height="26" as="geometry" />
        </mxCell>
        <mxCell id="KsVdHm2s3OmVLTwSaz9g-68" value="- MaximoPermitido: int" style="text;align=left;verticalAlign=top;spacingLeft=4;spacingRight=4;overflow=hidden;rotatable=0;points=[[0,0.5],[1,0.5]];portConstraint=eastwest;rounded=0;shadow=0;html=0;" vertex="1" parent="KsVdHm2s3OmVLTwSaz9g-62">
          <mxGeometry y="156" width="210" height="26" as="geometry" />
        </mxCell>
        <mxCell id="KsVdHm2s3OmVLTwSaz9g-69" value="" style="line;html=1;strokeWidth=1;align=left;verticalAlign=middle;spacingTop=-1;spacingLeft=3;spacingRight=3;rotatable=0;labelPosition=right;points=[];portConstraint=eastwest;" vertex="1" parent="KsVdHm2s3OmVLTwSaz9g-62">
          <mxGeometry y="182" width="210" height="8" as="geometry" />
        </mxCell>
        <mxCell id="KsVdHm2s3OmVLTwSaz9g-70" value="Compania" style="swimlane;fontStyle=0;align=center;verticalAlign=top;childLayout=stackLayout;horizontal=1;startSize=26;horizontalStack=0;resizeParent=1;resizeLast=0;collapsible=1;marginBottom=0;rounded=0;shadow=0;strokeWidth=1;fillColor=#008a00;fontColor=#ffffff;strokeColor=#005700;" vertex="1" parent="Zzf7KM-flJiP9QOSgCD5-168">
          <mxGeometry x="690" y="160" width="130" height="130" as="geometry">
            <mxRectangle x="230" y="140" width="160" height="26" as="alternateBounds" />
          </mxGeometry>
        </mxCell>
        <mxCell id="KsVdHm2s3OmVLTwSaz9g-71" value="- Nombre: string" style="text;align=left;verticalAlign=top;spacingLeft=4;spacingRight=4;overflow=hidden;rotatable=0;points=[[0,0.5],[1,0.5]];portConstraint=eastwest;fontStyle=0" vertex="1" parent="KsVdHm2s3OmVLTwSaz9g-70">
          <mxGeometry y="26" width="130" height="26" as="geometry" />
        </mxCell>
        <mxCell id="KsVdHm2s3OmVLTwSaz9g-72" value="- Direccion: string" style="text;align=left;verticalAlign=top;spacingLeft=4;spacingRight=4;overflow=hidden;rotatable=0;points=[[0,0.5],[1,0.5]];portConstraint=eastwest;rounded=0;shadow=0;html=0;" vertex="1" parent="KsVdHm2s3OmVLTwSaz9g-70">
          <mxGeometry y="52" width="130" height="26" as="geometry" />
        </mxCell>
        <mxCell id="KsVdHm2s3OmVLTwSaz9g-73" value="- Teléfono: string" style="text;align=left;verticalAlign=top;spacingLeft=4;spacingRight=4;overflow=hidden;rotatable=0;points=[[0,0.5],[1,0.5]];portConstraint=eastwest;rounded=0;shadow=0;html=0;" vertex="1" parent="KsVdHm2s3OmVLTwSaz9g-70">
          <mxGeometry y="78" width="130" height="26" as="geometry" />
        </mxCell>
        <mxCell id="KsVdHm2s3OmVLTwSaz9g-74" value="" style="line;html=1;strokeWidth=1;align=left;verticalAlign=middle;spacingTop=-1;spacingLeft=3;spacingRight=3;rotatable=0;labelPosition=right;points=[];portConstraint=eastwest;" vertex="1" parent="KsVdHm2s3OmVLTwSaz9g-70">
          <mxGeometry y="104" width="130" height="8" as="geometry" />
        </mxCell>
        <mxCell id="KsVdHm2s3OmVLTwSaz9g-75" value="Empleado" style="swimlane;fontStyle=0;align=center;verticalAlign=top;childLayout=stackLayout;horizontal=1;startSize=26;horizontalStack=0;resizeParent=1;resizeLast=0;collapsible=1;marginBottom=0;rounded=0;shadow=0;strokeWidth=1;fillColor=#647687;fontColor=#ffffff;strokeColor=#314354;" vertex="1" parent="Zzf7KM-flJiP9QOSgCD5-168">
          <mxGeometry x="390" y="470" width="210" height="140" as="geometry">
            <mxRectangle x="230" y="140" width="160" height="26" as="alternateBounds" />
          </mxGeometry>
        </mxCell>
        <mxCell id="KsVdHm2s3OmVLTwSaz9g-76" value="- NombUsuario: string" style="text;align=left;verticalAlign=top;spacingLeft=4;spacingRight=4;overflow=hidden;rotatable=0;points=[[0,0.5],[1,0.5]];portConstraint=eastwest;" vertex="1" parent="KsVdHm2s3OmVLTwSaz9g-75">
          <mxGeometry y="26" width="210" height="26" as="geometry" />
        </mxCell>
        <mxCell id="KsVdHm2s3OmVLTwSaz9g-77" value="- Contrasenia: string" style="text;align=left;verticalAlign=top;spacingLeft=4;spacingRight=4;overflow=hidden;rotatable=0;points=[[0,0.5],[1,0.5]];portConstraint=eastwest;rounded=0;shadow=0;html=0;" vertex="1" parent="KsVdHm2s3OmVLTwSaz9g-75">
          <mxGeometry y="52" width="210" height="26" as="geometry" />
        </mxCell>
        <mxCell id="KsVdHm2s3OmVLTwSaz9g-78" value="- NombCompleto: string" style="text;align=left;verticalAlign=top;spacingLeft=4;spacingRight=4;overflow=hidden;rotatable=0;points=[[0,0.5],[1,0.5]];portConstraint=eastwest;rounded=0;shadow=0;html=0;" vertex="1" parent="KsVdHm2s3OmVLTwSaz9g-75">
          <mxGeometry y="78" width="210" height="26" as="geometry" />
        </mxCell>
        <mxCell id="KsVdHm2s3OmVLTwSaz9g-79" value="" style="line;html=1;strokeWidth=1;align=left;verticalAlign=middle;spacingTop=-1;spacingLeft=3;spacingRight=3;rotatable=0;labelPosition=right;points=[];portConstraint=eastwest;" vertex="1" parent="KsVdHm2s3OmVLTwSaz9g-75">
          <mxGeometry y="104" width="210" height="8" as="geometry" />
        </mxCell>
        <mxCell id="KsVdHm2s3OmVLTwSaz9g-80" value="" style="group" vertex="1" connectable="0" parent="Zzf7KM-flJiP9QOSgCD5-168">
          <mxGeometry x="240" y="198" width="160" height="30" as="geometry" />
        </mxCell>
        <mxCell id="KsVdHm2s3OmVLTwSaz9g-81" value="" style="endArrow=none;html=1;rounded=0;entryX=0;entryY=0.297;entryDx=0;entryDy=0;entryPerimeter=0;" edge="1" parent="KsVdHm2s3OmVLTwSaz9g-80" target="KsVdHm2s3OmVLTwSaz9g-64">
          <mxGeometry width="50" height="50" relative="1" as="geometry">
            <mxPoint x="10" y="22" as="sourcePoint" />
            <mxPoint x="220" y="82" as="targetPoint" />
          </mxGeometry>
        </mxCell>
        <mxCell id="KsVdHm2s3OmVLTwSaz9g-82" value="Recorren&amp;gt;" style="text;html=1;align=center;verticalAlign=middle;resizable=0;points=[];autosize=1;strokeColor=none;fillColor=none;" vertex="1" parent="KsVdHm2s3OmVLTwSaz9g-80">
          <mxGeometry x="40" width="80" height="30" as="geometry" />
        </mxCell>
        <mxCell id="KsVdHm2s3OmVLTwSaz9g-83" value="*" style="text;html=1;align=center;verticalAlign=middle;resizable=0;points=[];autosize=1;strokeColor=none;fillColor=none;" vertex="1" parent="KsVdHm2s3OmVLTwSaz9g-80">
          <mxGeometry width="30" height="30" as="geometry" />
        </mxCell>
        <mxCell id="KsVdHm2s3OmVLTwSaz9g-84" value="*" style="text;html=1;align=center;verticalAlign=middle;resizable=0;points=[];autosize=1;strokeColor=none;fillColor=none;" vertex="1" parent="KsVdHm2s3OmVLTwSaz9g-80">
          <mxGeometry x="120" width="30" height="30" as="geometry" />
        </mxCell>
        <mxCell id="KsVdHm2s3OmVLTwSaz9g-85" value="" style="endArrow=none;html=1;rounded=0;entryX=-0.005;entryY=0.083;entryDx=0;entryDy=0;entryPerimeter=0;" edge="1" parent="Zzf7KM-flJiP9QOSgCD5-168" target="KsVdHm2s3OmVLTwSaz9g-73">
          <mxGeometry width="50" height="50" relative="1" as="geometry">
            <mxPoint x="590" y="240" as="sourcePoint" />
            <mxPoint x="660" y="240" as="targetPoint" />
          </mxGeometry>
        </mxCell>
        <mxCell id="KsVdHm2s3OmVLTwSaz9g-86" value="&amp;lt;Crean" style="text;html=1;align=center;verticalAlign=middle;resizable=0;points=[];autosize=1;strokeColor=none;fillColor=none;" vertex="1" parent="Zzf7KM-flJiP9QOSgCD5-168">
          <mxGeometry x="610" y="215" width="60" height="30" as="geometry" />
        </mxCell>
        <mxCell id="KsVdHm2s3OmVLTwSaz9g-87" value="*" style="text;html=1;align=center;verticalAlign=middle;resizable=0;points=[];autosize=1;strokeColor=none;fillColor=none;" vertex="1" parent="Zzf7KM-flJiP9QOSgCD5-168">
          <mxGeometry x="580" y="215" width="30" height="30" as="geometry" />
        </mxCell>
        <mxCell id="KsVdHm2s3OmVLTwSaz9g-88" value="1" style="text;html=1;align=center;verticalAlign=middle;resizable=0;points=[];autosize=1;strokeColor=none;fillColor=none;" vertex="1" parent="Zzf7KM-flJiP9QOSgCD5-168">
          <mxGeometry x="670" y="215" width="30" height="30" as="geometry" />
        </mxCell>
        <mxCell id="KsVdHm2s3OmVLTwSaz9g-89" value="" style="endArrow=none;html=1;rounded=0;exitX=0.477;exitY=0.005;exitDx=0;exitDy=0;exitPerimeter=0;" edge="1" parent="Zzf7KM-flJiP9QOSgCD5-168" source="KsVdHm2s3OmVLTwSaz9g-75">
          <mxGeometry width="50" height="50" relative="1" as="geometry">
            <mxPoint x="480" y="440" as="sourcePoint" />
            <mxPoint x="490" y="370" as="targetPoint" />
          </mxGeometry>
        </mxCell>
        <mxCell id="KsVdHm2s3OmVLTwSaz9g-90" value="^Venden" style="text;html=1;align=center;verticalAlign=middle;resizable=0;points=[];autosize=1;strokeColor=none;fillColor=none;" vertex="1" parent="Zzf7KM-flJiP9QOSgCD5-168">
          <mxGeometry x="480" y="400" width="70" height="30" as="geometry" />
        </mxCell>
        <mxCell id="KsVdHm2s3OmVLTwSaz9g-91" value="*" style="text;html=1;align=center;verticalAlign=middle;resizable=0;points=[];autosize=1;strokeColor=none;fillColor=none;" vertex="1" parent="Zzf7KM-flJiP9QOSgCD5-168">
          <mxGeometry x="480" y="370" width="30" height="30" as="geometry" />
        </mxCell>
        <mxCell id="KsVdHm2s3OmVLTwSaz9g-92" value="1" style="text;html=1;align=center;verticalAlign=middle;resizable=0;points=[];autosize=1;strokeColor=none;fillColor=none;" vertex="1" parent="Zzf7KM-flJiP9QOSgCD5-168">
          <mxGeometry x="480" y="440" width="30" height="30" as="geometry" />
        </mxCell>
        <mxCell id="KsVdHm2s3OmVLTwSaz9g-93" value="" style="endArrow=none;dashed=1;html=1;rounded=0;" edge="1" parent="Zzf7KM-flJiP9QOSgCD5-168">
          <mxGeometry width="50" height="50" relative="1" as="geometry">
            <mxPoint x="280" y="220" as="sourcePoint" />
            <mxPoint x="280" y="130" as="targetPoint" />
          </mxGeometry>
        </mxCell>
        <mxCell id="KsVdHm2s3OmVLTwSaz9g-94" value="Parada" style="swimlane;fontStyle=0;align=center;verticalAlign=top;childLayout=stackLayout;horizontal=1;startSize=26;horizontalStack=0;resizeParent=1;resizeLast=0;collapsible=1;marginBottom=0;rounded=0;shadow=0;strokeWidth=1;fillColor=#B5739D;fontColor=#ffffff;strokeColor=#7D4F6C;" vertex="1" parent="Zzf7KM-flJiP9QOSgCD5-168">
          <mxGeometry x="230" y="60" width="160" height="70" as="geometry">
            <mxRectangle x="230" y="140" width="160" height="26" as="alternateBounds" />
          </mxGeometry>
        </mxCell>
        <mxCell id="KsVdHm2s3OmVLTwSaz9g-95" value="- Parada: int" style="text;align=left;verticalAlign=top;spacingLeft=4;spacingRight=4;overflow=hidden;rotatable=0;points=[[0,0.5],[1,0.5]];portConstraint=eastwest;" vertex="1" parent="KsVdHm2s3OmVLTwSaz9g-94">
          <mxGeometry y="26" width="160" height="26" as="geometry" />
        </mxCell>
        <mxCell id="KsVdHm2s3OmVLTwSaz9g-96" value="" style="line;html=1;strokeWidth=1;align=left;verticalAlign=middle;spacingTop=-1;spacingLeft=3;spacingRight=3;rotatable=0;labelPosition=right;points=[];portConstraint=eastwest;" vertex="1" parent="KsVdHm2s3OmVLTwSaz9g-94">
          <mxGeometry y="52" width="160" height="8" as="geometry" />
        </mxCell>
        <mxCell id="Zzf7KM-flJiP9QOSgCD5-1" value="UI" style="shape=folder;fontStyle=1;tabWidth=80;tabHeight=30;tabPosition=left;html=1;boundedLbl=1;labelInHeader=1;container=1;collapsible=0;recursiveResize=0;" parent="1" vertex="1">
          <mxGeometry x="-480" y="30" width="1370" height="680" as="geometry" />
        </mxCell>
        <mxCell id="KsVdHm2s3OmVLTwSaz9g-97" value="" style="shape=flexArrow;endArrow=classic;html=1;strokeColor=#000000;strokeWidth=3;" edge="1" parent="1">
          <mxGeometry width="50" height="50" relative="1" as="geometry">
            <mxPoint x="910" y="710" as="sourcePoint" />
            <mxPoint x="1020" y="760" as="targetPoint" />
          </mxGeometry>
        </mxCell>
        <mxCell id="KsVdHm2s3OmVLTwSaz9g-98" value="" style="shape=flexArrow;endArrow=classic;html=1;strokeColor=#000000;strokeWidth=3;" edge="1" parent="1">
          <mxGeometry width="50" height="50" relative="1" as="geometry">
            <mxPoint x="900" y="980" as="sourcePoint" />
            <mxPoint x="1030" y="980" as="targetPoint" />
          </mxGeometry>
        </mxCell>
        <mxCell id="KsVdHm2s3OmVLTwSaz9g-99" value="" style="shape=flexArrow;endArrow=classic;html=1;strokeColor=#000000;strokeWidth=3;" edge="1" parent="1">
          <mxGeometry width="50" height="50" relative="1" as="geometry">
            <mxPoint x="930" y="1450" as="sourcePoint" />
            <mxPoint x="1040" y="1360" as="targetPoint" />
          </mxGeometry>
        </mxCell>
      </root>
    </mxGraphModel>
  </diagram>
</mxfile>
